<svg xmlns="http://www.w3.org/2000/svg" xmlns:xlink="http://www.w3.org/1999/xlink" width="89" height="14" viewBox="0 0 89 14"><defs><path id="a" d="M.202.218h8.166v9.364H.202z"/><path id="c" d="M.14.218h6.775v9.364H.139z"/></defs><g fill="none" fill-rule="evenodd"><path fill="#FFF" d="M40.901 1.97l-2.408 3.97-2.522-3.97h-1.795l3.531 5.534v3.363h1.53V7.503l3.433-5.534z"/><g transform="translate(45.337 1.285)"><mask id="b" fill="#fff"><use xlink:href="#a"/></mask><path fill="#FFF" d="M4.263 4.265V5.87h2.589v1.776a6.052 6.052 0 01-1.9.305c-1.988 0-3.176-1.14-3.176-3.05 0-1.826 1.277-3.052 3.176-3.052.906 0 1.85.227 2.73.657l.14.068.468-1.52-.126-.06C7.084.48 5.968.218 4.848.218 2.068.218.202 2.132.202 4.98c0 2.882 1.754 4.602 4.692 4.602 1.16 0 2.49-.316 3.392-.806l.082-.045V4.265H4.263z" mask="url(#b)"/></g><path fill="#FFF" d="M76.546 9.128V6.886h3.83V5.282h-3.83V3.174h4.225V1.57h-5.742v9.164h5.811V9.128z"/><g transform="translate(81.585 1.285)"><mask id="d" fill="#fff"><use xlink:href="#c"/></mask><path fill="#FFF" d="M3.894 4.032c-1.182-.193-1.9-.366-1.9-1.13 0-.669.595-1.053 1.632-1.053 1.09 0 2.031.475 2.385.68l.13.074.597-1.414-.115-.078C5.789.551 4.638.218 3.545.218 1.587.218.419 1.252.419 2.984c0 .833.247 1.447.755 1.875.624.525 1.532.672 2.333.802 1.136.184 1.833.334 1.833 1.048 0 1.121-1.37 1.242-1.958 1.242a4.14 4.14 0 01-2.42-.767l-.127-.088L.14 8.519l.112.084c.59.447 1.61.98 3.12.98 2.153 0 3.544-1.155 3.544-2.94 0-2.116-1.675-2.39-3.021-2.61" mask="url(#d)"/></g><path fill="#FFF" d="M25.96 10.733l1.541-5.064 2.603 5.032 2.602-5.032 1.541 5.064h1.585l-2.77-9.222-2.958 5.739-2.958-5.739-2.771 9.222zM58.34 5.22l1.176 2.433h-2.347L58.34 5.22zm-2.663 5.513l.816-1.683 3.697-.002.814 1.685h1.717L58.34 1.51l-4.381 9.222h1.717z"/><path fill="#FFF" d="M64.305 10.733l1.54-5.211 2.603 5.179 2.603-5.18 1.54 5.212h1.585l-2.77-9.222-2.958 5.739-2.957-5.739-2.771 9.222zm-19.97-1.431l-1.355 1.565-1.355-1.565 1.355-1.565zM11.323.01L8.325 3.53 5.332.014 0 6.277l2.285 2.685 3.011-3.538 3 3.524 3.012-3.54 1.21 1.425-3.012 3.537 2.304 2.706L20.625 2.72 18.322.014l-3.498 4.109L11.323.009z"/></g></svg>